<?xml version="1.0" encoding="UTF-8"?>
<svg id="Layer_1" data-name="Layer 1" xmlns="http://www.w3.org/2000/svg" viewBox="0 0 200 200">
  <defs>
    <style>
      .cls-1 {
        fill: #231f20;
      }

      .cls-1, .cls-2 {
        stroke-width: 0px;
      }

      .cls-2 {
        fill: #fff;
      }
    </style>
  </defs>
  <circle class="cls-2" cx="100" cy="100" r="100"/>
  <g>
    <path class="cls-1" d="M135.15,41.92c.13.25.28.48.38.73.23.58.44,1.16.63,1.74.25.76.04,1.41-.56,1.91-.33.28-.7.52-1.08.73-10.05,5.79-20.1,11.58-30.15,17.37-6.61,3.81-13.22,7.63-19.84,11.44-.28.16-.56.32-.81.51-.44.33-.44.61.02.9.64.4,1.3.78,1.96,1.15.52.29,1.05.57,1.59.82.95.46,1.87.42,2.81-.12,8.32-4.79,16.66-9.55,24.99-14.34,6.44-3.7,12.87-7.42,19.3-11.13.2-.11.39-.25.6-.33.37-.14.67.02.68.41.01,1.12.04,2.25-.05,3.37-.05.66-.58,1.07-1.13,1.39-1.27.73-2.54,1.47-3.81,2.2-12.06,6.94-24.12,13.88-36.18,20.82-.32.18-.63.38-.91.62-.35.3-.34.6.05.83,1.48.88,2.96,1.74,4.47,2.57.2.11.54.08.78.01.32-.1.62-.29.92-.46,11.23-6.49,22.46-12.99,33.7-19.47.45-.26.93-.5,1.42-.69.49-.19.76,0,.76.52.01.99-.01,1.97-.01,2.96,0,.46-.24.79-.57,1.05-.29.23-.6.42-.92.6-10.05,5.84-20.1,11.67-30.16,17.49-.92.53-1.04.87-.03,1.41,1.27.68,2.52,1.42,3.76,2.15.42.25.82.25,1.24.06.33-.16.66-.32.98-.5,8.18-4.72,16.36-9.44,24.54-14.15.16-.09.31-.2.48-.27.38-.17.68-.04.68.36.02,1.17.02,2.34-.04,3.51-.01.28-.25.58-.46.82-.19.22-.46.38-.71.53-7.94,4.59-15.89,9.16-23.82,13.76-1.46.85-2.84.82-4.28,0-11.71-6.76-23.43-13.51-35.15-20.26-15.91-9.17-31.82-18.33-47.73-27.5-.12-.07-.24-.14-.36-.21-1.12-.58-1.65-1.46-1.48-2.75.08-.61.02-1.24.03-1.86,0-.69.3-.87.9-.55,1.38.73,2.76,1.44,4.11,2.22,15.68,9.05,31.36,18.12,47.03,27.18,1.01.59,2.03,1.16,3,1.81,1.3.87,2.52.82,3.85.04,6.63-3.87,13.29-7.69,19.94-11.54,11.03-6.38,22.06-12.77,33.09-19.15.47-.27.94-.56,1.55-.7Z"/>
    <path class="cls-1" d="M100.57,107.53h-4.15c-.02-.21-.06-.41-.06-.6,0-1.24.03-2.48.03-3.72,0-.46-.03-.92-.11-1.37-.14-.86-.7-1.43-1.42-1.85-.99-.58-1.99-1.14-2.98-1.71-16.78-9.71-33.56-19.42-50.35-29.12-6.03-3.49-12.07-6.97-18.12-10.41-1.19-.68-1.74-1.63-1.75-2.96,0-.62,0-1.24.02-1.86.02-.56.32-.74.81-.5.27.13.52.29.78.44,12.48,7.21,24.97,14.41,37.45,21.62,11.55,6.67,23.09,13.35,34.64,20.02,1.19.69,2.37,1.4,3.55,2.11,1.09.66,1.65,1.61,1.65,2.9,0,2.09.01,4.18.02,6.26,0,.22,0,.45,0,.74Z"/>
    <path class="cls-1" d="M90.66,107.52h-4.22c-.23-.96-.94-1.48-1.76-1.96-18.58-10.73-37.15-21.47-55.72-32.21-1.9-1.1-3.82-2.18-5.73-3.27-.18-.1-.36-.21-.53-.32-.8-.57-1.2-1.34-1.03-2.31.14-.83.39-1.63.62-2.54.46.21.84.36,1.19.56,7.38,4.27,14.76,8.54,22.14,12.81,14.39,8.31,28.78,16.62,43.16,24.94.32.18.63.37.92.6.59.46.93,1.08.96,1.83.02.61,0,1.23,0,1.88Z"/>
    <path class="cls-1" d="M78.64,122.16c-.06,1.96-.4,3.84-1.2,5.63-1.45,3.22-3.87,5.36-7.24,6.38-2.75.83-5.53.81-8.25-.1-3.56-1.19-5.99-3.61-7.19-7.15-1.16-3.4-1.07-6.83.33-10.15,1.73-4.09,4.91-6.32,9.28-6.92,2.34-.32,4.63-.11,6.83.75,3.85,1.51,6.13,4.38,7.03,8.37.24,1.04.28,2.13.42,3.2ZM58.38,122.18c.02.34.02.73.05,1.12.03.3.07.59.13.88.79,4.12,3.88,6.53,7.31,6.67,3.11.13,5.91-1.42,7.3-4.21.9-1.79,1.16-3.69.98-5.68-.31-3.36-2.65-6.9-6.97-7.34-2.41-.25-4.55.37-6.3,2.08-1.79,1.75-2.51,3.94-2.5,6.46Z"/>
    <path class="cls-1" d="M66.65,107.51c-.2-1.21-1.08-1.75-2.09-2.18-.59-.25-1.13-.6-1.68-.92-.36-.21-.7-.44-1.04-.66-.23-.15-.49-.38-.74-.15-.15.14-.2.45-.2.68-.02,1.05,0,2.11,0,3.24-1.35.1-2.67.04-4.07.05,0-.29,0-.51,0-.73,0-1.24.02-2.48.03-3.72,0-.23-.02-.46-.02-.69,0-1.12-.54-1.91-1.49-2.45-1.23-.71-2.47-1.4-3.7-2.11-8.41-4.87-16.82-9.74-25.24-14.6-.55-.32-1.15-.55-1.74-.81-.21-.1-.43-.17-.64-.26-1.47-.64-2.25-1.77-2.32-3.37-.03-.59.03-1.19.1-1.78.06-.56.35-.68.86-.42.16.08.32.18.48.27,14.52,8.36,29.04,16.73,43.55,25.09,2.94,1.69,5.88,3.38,8.82,5.07.21.12.4.25.57.47h-9.43Z"/>
    <path class="cls-1" d="M143.51,134.08v-23.64c.5-.16,14.52-.19,15.27-.03v3.78c-1.86.03-3.71,0-5.56.01-1.83,0-3.67,0-5.54,0v5.74c1.75.08,3.5.02,5.26.03,1.74,0,3.48,0,5.26,0v3.87h-10.44c-.15.56-.2,4.8-.08,6.38.96.03,1.94.01,2.92.02.96,0,1.93,0,2.89,0h5.89v3.83h-15.86Z"/>
    <path class="cls-1" d="M82.34,110.36h4.15v.79c0,4.57,0,9.13,0,13.7,0,.81.08,1.6.31,2.38.63,2.07,2.4,3.39,4.56,3.44.83.02,1.65-.04,2.43-.37,1.64-.7,2.53-1.99,2.89-3.68.1-.49.14-1,.15-1.5.01-4.63,0-9.27,0-13.9,0-.27,0-.54,0-.84h4.09c.02.19.06.36.06.54,0,4.96.03,9.91,0,14.87-.03,4.54-2.95,8-7.44,8.82-2.15.39-4.26.17-6.24-.8-3.03-1.48-4.56-3.99-4.9-7.29-.05-.52-.05-1.05-.05-1.58,0-4.59,0-9.18,0-13.77,0-.25,0-.49,0-.78Z"/>
    <path class="cls-1" d="M139.11,112.21c-1,1.08-1.98,2.14-2.98,3.22-.12-.1-.21-.17-.28-.25-1.18-1.35-2.73-1.71-4.42-1.55-.58.05-1.17.24-1.69.51-1.21.61-1.74,1.98-1.36,3.28.14.45.38.85.79,1.09.69.4,1.39.8,2.12,1.11.8.34,1.64.58,2.47.85,1.23.4,2.4.92,3.38,1.78,1.09.95,1.81,2.11,2,3.58.22,1.7.09,3.34-.71,4.89-1.1,2.11-2.92,3.24-5.16,3.75-2.3.52-4.55.33-6.75-.51-1.31-.5-2.48-1.37-3.24-2.35,1.02-1.02,2.03-2.04,3.08-3.08.09.1.24.29.4.48,1.45,1.68,3.83,2.31,5.88,1.55.63-.23,1.18-.59,1.63-1.11.82-.95.97-3.08-.54-4.08-.85-.57-1.77-.96-2.72-1.3-.82-.29-1.66-.53-2.47-.84-1.3-.49-2.48-1.19-3.37-2.3-.53-.65-.91-1.37-1.07-2.2-.89-4.51,1.53-7.36,4.89-8.44,2.34-.76,4.69-.74,7.03.02,1.17.38,2.19,1,3.1,1.92Z"/>
    <path class="cls-1" d="M117.41,115.43c-.12-.09-.18-.12-.22-.17-1.04-1.48-3.7-2.08-5.66-1.37-1.49.54-2.24,1.9-1.9,3.38.12.51.35.97.81,1.23.69.41,1.39.81,2.12,1.12.8.34,1.64.58,2.47.85.99.31,1.93.72,2.79,1.31,1.74,1.2,2.67,2.85,2.71,4.99.03,1.42-.16,2.79-.85,4.06-1.14,2.08-2.97,3.18-5.22,3.68-2.13.47-4.24.31-6.3-.4-1.46-.5-2.68-1.35-3.63-2.51,1.04-1.05,2.05-2.07,3.08-3.11.14.16.27.34.42.51,1.53,1.68,3.41,2.23,5.61,1.67.63-.16,1.17-.49,1.66-.93,1.15-1.04,1.26-3.36-.32-4.38-.86-.55-1.77-.95-2.73-1.28-.69-.24-1.4-.45-2.08-.69-1.47-.53-2.8-1.25-3.78-2.52-.49-.63-.84-1.31-1-2.09-.86-4.33,1.27-7.24,4.79-8.44,2.37-.81,4.78-.79,7.16,0,1.14.38,2.15.99,3.06,1.9-.99,1.07-1.96,2.13-2.97,3.22Z"/>
    <path class="cls-1" d="M163.46,110.35h14.87v3.82c-.69.06-1.4.02-2.09.03-.71,0-1.42,0-2.13,0h-6.48c-.06,2.06-.02,4.09-.03,6.19h10.13v3.86c-1.67.07-3.36.02-5.04.03-1.67,0-3.34,0-5.08,0v9.78h-4.14v-23.7Z"/>
    <path class="cls-1" d="M166.93,150.81v-12.65c.19-.02.37-.06.54-.06,1.47,0,2.94-.04,4.4.02.79.03,1.61.15,2.36.38,2.44.77,3.76,2.52,4.08,5.02.12.96.1,1.93-.2,2.86-.73,2.25-2.34,3.57-4.55,4.17-.66.18-1.35.25-2.04.27-1.33.04-2.66.01-3.99.01-.18,0-.36-.02-.6-.04ZM169.26,148.73c1.31-.03,2.55.1,3.76-.28,1.82-.57,2.82-1.73,2.92-3.63.12-2.14-.68-3.76-2.83-4.37-1.25-.35-2.53-.22-3.85-.2v8.48Z"/>
    <path class="cls-1" d="M156.07,138.14h8.31c.08.66.02,1.31.04,2.04-2.05.11-4.05-.01-6.11.07v3.03h5.74v2.08h-5.76c0,.58-.02,1.13-.02,1.67,0,.52,0,1.05,0,1.64.74.12,1.44.05,2.14.06.71.01,1.42,0,2.13,0h2.14v2.08h-8.6c-.15-.56-.16-12.02-.01-12.67Z"/>
    <path class="cls-1" d="M102.68,150.8v-12.65h8.36v2.05h-6.04v3.08h5.71v2.07c-.63,0-1.26.01-1.89.01-.62,0-1.24,0-1.86,0s-1.28,0-1.97,0v3.32c2.11.1,4.23-.02,6.37.07v2.05h-8.7Z"/>
    <path class="cls-1" d="M142.07,150.84c-.4-.96-.8-1.91-1.19-2.86h-5.46c-.38.94-.77,1.89-1.15,2.83h-2.43c.06-.56,4.55-11.06,5.41-12.67h1.96c1.79,4.16,3.6,8.36,5.46,12.66-.91.08-1.74.04-2.6.03ZM136.24,145.88c1,.12,3.25.09,3.78-.06-.6-1.57-1.19-3.13-1.78-4.7-.05,0-.1,0-.15,0-.6,1.56-1.21,3.13-1.84,4.76Z"/>
    <path class="cls-1" d="M77.17,138.19h3.3c-.05,2.06-.13,4.09-.15,6.12-.02,2.04-.04,4.08.02,6.12.06,2.04.23,4.07.35,6.2-.66.45-1.39.95-2.16,1.48-.67-.39-1.24-.88-1.77-1.41-.1-.1-.13-.34-.12-.5.54-5.83.56-11.67.5-17.52,0-.13.01-.27.02-.49Z"/>
    <path class="cls-1" d="M86.58,138.2h4.05c.01.27.03.49.03.71,0,3.92.01,7.84.01,11.76,0,.23,0,.46-.01.69-.03.76-.35,1.4-1,1.78-.77.45-1.57.84-2.38,1.22-.32.15-.59-.02-.64-.38-.02-.16-.01-.32-.01-.48,0-2.5,0-5-.02-7.49,0-2.34-.02-4.67-.03-7.01,0-.25,0-.5,0-.8Z"/>
    <path class="cls-1" d="M66.71,138.2h3.97c.01.24.04.46.04.68,0,4.75,0,9.5,0,14.25,0,.14,0,.28-.01.41-.05.37-.27.55-.62.44-.74-.24-1.48-.49-2.18-.82-.64-.3-.97-.9-1.07-1.59-.08-.52-.13-1.05-.13-1.58-.01-3.69,0-7.39,0-11.08,0-.22,0-.44,0-.71Z"/>
    <path class="cls-1" d="M122.08,149.49c.54-.59,1.05-1.14,1.67-1.81.16.22.25.41.4.55.93.9,2.37,1.1,3.43.5.54-.31.84-.76.83-1.4,0-.5-.17-.92-.61-1.15-.58-.31-1.2-.56-1.81-.81-.57-.24-1.17-.41-1.72-.67-2.5-1.18-2.3-4.59-.44-5.9,1.29-.91,2.74-1.12,4.26-.91.99.14,1.9.49,2.65,1.24-.08.11-.13.21-.21.29-.48.46-.97.91-1.48,1.38-.42-.45-.99-.75-1.67-.86-.54-.09-1.05-.02-1.55.16-.59.22-.94.66-1,1.28-.06.62.24,1.07.79,1.32.65.29,1.32.52,1.98.77.38.15.78.26,1.15.44,1.2.57,1.99,1.46,2.07,2.84.09,1.53-.4,2.81-1.74,3.65-1.16.73-2.45.88-3.77.71-1.26-.16-2.4-.6-3.23-1.61Z"/>
    <path class="cls-1" d="M150.11,150.81h-2.31c0-.27,0-.49,0-.72,0-1.33-.02-2.66,0-3.99.01-.51-.14-.92-.41-1.34-1.32-1.98-2.62-3.98-3.93-5.98-.12-.18-.22-.38-.4-.67.94,0,1.78-.02,2.62.02.17,0,.37.24.48.42.82,1.3,1.62,2.61,2.43,3.92.12.19.25.37.41.62.15-.21.27-.36.38-.53.79-1.26,1.61-2.51,2.35-3.8.3-.51.64-.7,1.21-.65.59.05,1.18.01,1.89.01-.13.25-.21.42-.32.58-1.36,2.07-2.71,4.14-4.08,6.21-.23.34-.34.67-.33,1.09.02,1.58,0,3.16,0,4.82Z"/>
    <path class="cls-1" d="M96.38,138.2h4.15c.01.23.04.43.04.64,0,2.06-.05,4.13,0,6.19.02,1-.37,1.76-1.12,2.3-.74.53-1.55.96-2.36,1.4-.38.21-.67.02-.75-.4-.02-.11-.01-.23-.01-.34,0-3.1,0-6.19,0-9.29,0-.16.03-.31.05-.51Z"/>
    <path class="cls-1" d="M113.65,138.15h2.23v10.58h5.35v2.01c-.5.14-6.69.18-7.58.04v-12.63Z"/>
    <path class="cls-1" d="M56.82,138.2h4c.02.19.06.34.06.5,0,2.96,0,5.91,0,8.87,0,.09,0,.18,0,.27-.05.4-.26.58-.65.48-.59-.16-1.19-.34-1.75-.58-.92-.39-1.41-1.14-1.55-2.12-.07-.47-.12-.96-.12-1.44-.01-1.83,0-3.67,0-5.5,0-.13.01-.27.03-.48Z"/>
  </g>
</svg>